<svg width="20" height="20" viewBox="0 0 20 20" fill="none" xmlns="http://www.w3.org/2000/svg">
<g id="material-symbols:search">
<path id="Vector" d="M14.8613 16.6667L10.4863 12.2917C10.1391 12.5694 9.73975 12.7894 9.28836 12.9514C8.83697 13.1134 8.35664 13.1944 7.84738 13.1944C6.58581 13.1944 5.51822 12.7574 4.64461 11.8833C3.771 11.0093 3.33396 9.94167 3.3335 8.68056C3.3335 7.41899 3.77053 6.35139 4.64461 5.47778C5.51868 4.60417 6.58627 4.16713 7.84738 4.16667C9.10896 4.16667 10.1766 4.60371 11.0502 5.47778C11.9238 6.35186 12.3608 7.41945 12.3613 8.68056C12.3613 9.18982 12.2803 9.67014 12.1182 10.1215C11.9562 10.5729 11.7363 10.9722 11.4585 11.3194L15.8335 15.6944L14.8613 16.6667ZM7.84738 11.8056C8.71544 11.8056 9.4534 11.5016 10.0613 10.8938C10.6691 10.2859 10.9728 9.54815 10.9724 8.68056C10.9724 7.8125 10.6684 7.07454 10.0606 6.46667C9.45271 5.8588 8.71498 5.5551 7.84738 5.55556C6.97933 5.55556 6.24137 5.8595 5.6335 6.46737C5.02563 7.07524 4.72192 7.81297 4.72238 8.68056C4.72238 9.54862 5.02632 10.2866 5.63419 10.8944C6.24206 11.5023 6.97979 11.806 7.84738 11.8056Z" fill="white"/>
</g>
</svg>
